<svg width="113" height="112" viewBox="0 0 113 112" fill="none" xmlns="http://www.w3.org/2000/svg">
<path fill-rule="evenodd" clip-rule="evenodd" d="M112.996 55.9959C112.996 55.9959 113.666 30.2639 98.0657 14.8019C82.4659 -0.659707 56.5042 0.00415162 56.5042 0.00415162C56.5042 0.00415162 56.5005 0.136686 56.5 0.388374C56.5 0.282078 56.4989 0.197041 56.4984 0.134248C56.4974 0.0483814 56.4958 0.00415162 56.4958 0.00415162C56.4958 0.00415162 30.5341 -0.659707 14.9341 14.8019C-0.665597 30.2639 0.00418869 55.9959 0.00418869 55.9959C0.00418869 55.9959 25.9662 56.6596 41.5657 41.1979C55.8246 27.0657 56.4911 4.35302 56.5 0.551915C56.5094 4.35302 57.1759 27.0657 71.4343 41.1979C87.034 56.6596 112.996 55.9959 112.996 55.9959ZM14.9341 97.1979C-0.665597 81.7361 0.00418869 56.0041 0.00418869 56.0041C0.00418869 56.0041 25.9662 55.3404 41.5657 70.8021C55.8246 84.9344 56.4911 107.647 56.5 111.448C56.5094 107.647 57.1759 84.9344 71.4343 70.8021C87.034 55.3404 112.996 56.0041 112.996 56.0041C112.996 56.0041 113.666 81.7361 98.0657 97.1979C82.4659 112.66 56.5042 111.996 56.5042 111.996C56.5042 111.996 56.5005 111.863 56.5 111.612C56.4995 111.863 56.4958 111.996 56.4958 111.996C56.4958 111.996 30.5341 112.66 14.9341 97.1979Z" fill="#F2B30F"/>
</svg>
