<svg width="17" height="15" viewBox="0 0 17 15" fill="none" xmlns="http://www.w3.org/2000/svg">
<path d="M8.50037 1.29877C7.57168 0.463575 6.35609 3.88076e-05 5.09447 0C4.42671 0.000679979 3.76567 0.13051 3.1494 0.382018C2.53314 0.633526 1.97381 1.00175 1.50361 1.46549C-0.501914 3.43531 -0.501062 6.51634 1.50532 8.47783L7.75459 14.5899C7.89948 14.8391 8.17905 15 8.50037 15C8.63231 14.9987 8.76211 14.9672 8.87935 14.908C8.99658 14.8488 9.09799 14.7635 9.17542 14.6591L15.4954 8.47783C17.5018 6.51551 17.5018 3.43531 15.4937 1.46215C15.0238 0.999264 14.4649 0.631791 13.8492 0.380863C13.2336 0.129935 12.5733 0.000499839 11.9063 0C10.6447 0.0002017 9.42916 0.463715 8.50037 1.29877V1.29877ZM14.2885 2.64088C15.6207 3.95048 15.6216 5.99617 14.2902 7.2991L8.50037 12.9618L2.71051 7.2991C1.37917 5.99617 1.38003 3.95048 2.7088 2.64422C3.35657 2.014 4.20379 1.66722 5.09447 1.66722C5.98515 1.66722 6.82896 2.014 7.47161 2.64255L7.89778 3.05935C7.97686 3.13683 8.07079 3.1983 8.17419 3.24024C8.27759 3.28218 8.38843 3.30377 8.50037 3.30377C8.61231 3.30377 8.72315 3.28218 8.82655 3.24024C8.92995 3.1983 9.02388 3.13683 9.10297 3.05935L9.52913 2.64255C10.8179 1.38463 13.0015 1.38796 14.2885 2.64088V2.64088Z" fill="#F2B30F"/>
</svg>
