<svg width="29" height="32" viewBox="0 0 29 32" fill="none" xmlns="http://www.w3.org/2000/svg">
<path d="M14.113 31.6207C14.1675 32.1264 14.8325 32.1264 14.887 31.6207L15.3432 27.3781C15.9323 21.8997 19.8466 17.5804 24.8113 16.9304L28.6562 16.427C29.1146 16.3669 29.1146 15.6331 28.6562 15.573L24.8113 15.0696C19.8466 14.4196 15.9323 10.1003 15.3432 4.62197L14.887 0.379343C14.8325 -0.126448 14.1675 -0.126448 14.113 0.379343L13.6568 4.62197C13.0677 10.1003 9.1534 14.4196 4.18862 15.0696L0.343739 15.573C-0.11458 15.6331 -0.11458 16.3669 0.343739 16.427L4.18862 16.9304C9.1534 17.5804 13.0677 21.8997 13.6568 27.3781L14.113 31.6207Z" fill="#F2994A"/>
</svg>
