<?xml version="1.0" encoding="utf-8"?>
<!-- Generator: Adobe Illustrator 26.0.1, SVG Export Plug-In . SVG Version: 6.00 Build 0)  -->
<svg version="1.1" id="Capa_1" xmlns="http://www.w3.org/2000/svg" xmlns:xlink="http://www.w3.org/1999/xlink" x="0px" y="0px"
	 viewBox="0 0 16 16" style="enable-background:new 0 0 16 16;" xml:space="preserve">
<style type="text/css">
	.st0{fill:#F5F5F7;}
</style>
<path class="st0" d="M0,2c0-1.1,0.9-2,2-2h12c1.1,0,2,0.9,2,2v12c0,1.1-0.9,2-2,2H2c-1.1,0-2-0.9-2-2V2z M4,8c0,0.3,0.2,0.5,0.5,0.5
	h5.8l-2.1,2.1c-0.2,0.2-0.2,0.5,0,0.7s0.5,0.2,0.7,0l3-3l0,0c0.2-0.2,0.2-0.5,0-0.7l-3-3c-0.2-0.2-0.5-0.2-0.7,0S8,5.2,8.1,5.4
	l2.1,2.1H4.5C4.2,7.5,4,7.7,4,8z"/>
</svg>
