<svg width="26" height="26" viewBox="0 0 26 26" fill="none" xmlns="http://www.w3.org/2000/svg">
<path fill-rule="evenodd" clip-rule="evenodd" d="M25.999 12.999C25.999 12.999 26.1532 7.02554 22.5638 3.43617C18.9745 -0.153146 13.001 0.000963769 13.001 0.000963769C13.001 0.000963769 13.0001 0.0317306 13 0.0901583C13 0.0654824 12.9998 0.0457416 12.9996 0.0311647C12.9994 0.0112314 12.999 0.000963769 12.999 0.000963769C12.999 0.000963769 7.02554 -0.153146 3.43617 3.43617C-0.153146 7.02554 0.000963769 12.999 0.000963769 12.999C0.000963769 12.999 5.97452 13.1531 9.56379 9.56379C12.8446 6.28311 12.998 1.01052 13 0.128123C13.0022 1.01052 13.1555 6.28311 16.4362 9.56379C20.0255 13.1531 25.999 12.999 25.999 12.999ZM3.43617 22.5638C-0.153146 18.9745 0.000963769 13.001 0.000963769 13.001C0.000963769 13.001 5.97452 12.8469 9.56379 16.4362C12.8446 19.7169 12.998 24.9895 13 25.8719C13.0022 24.9895 13.1555 19.7169 16.4362 16.4362C20.0255 12.8469 25.999 13.001 25.999 13.001C25.999 13.001 26.1532 18.9745 22.5638 22.5638C18.9745 26.1531 13.001 25.999 13.001 25.999C13.001 25.999 13.0001 25.9682 13 25.9098C12.9999 25.9682 12.999 25.999 12.999 25.999C12.999 25.999 7.02554 26.1531 3.43617 22.5638Z" fill="#F2B30F"/>
</svg>
